<?xml version="1.0" encoding="utf-8"?>
<!-- Generator: Adobe Illustrator 16.0.0, SVG Export Plug-In . SVG Version: 6.00 Build 0)  -->
<!DOCTYPE svg PUBLIC "-//W3C//DTD SVG 1.1//EN" "http://www.w3.org/Graphics/SVG/1.1/DTD/svg11.dtd">
<svg version="1.1" id="Layer_1" xmlns="http://www.w3.org/2000/svg" xmlns:xlink="http://www.w3.org/1999/xlink" x="0px" y="0px"
	 width="371px" height="507px" viewBox="0 0 371 507" enable-background="new 0 0 371 507" xml:space="preserve">
<g id="Layer_1_1_" display="none">
	<path display="inline" d="M485.128,72.805h-83.466h-96.758H180.321c-18.727,0-33.979,15.254-33.979,33.956v25.051h-41.918
		c-18.702,0-33.956,15.229-33.956,33.956v417.391c0,18.701,15.229,33.931,33.956,33.931H409.23
		c18.727,0,33.981-15.229,33.981-33.931v-25.104h41.893c18.701,0,33.955-15.204,33.955-33.955v-323.73v-93.608
		C519.084,88.06,503.827,72.805,485.128,72.805z M415.779,583.184c0,3.621-2.927,6.499-6.549,6.499H104.422
		c-3.621,0-6.523-2.878-6.523-6.499V165.793c0-3.596,2.902-6.523,6.523-6.523h197.509v79.867c0,18.729,15.204,33.98,33.931,33.98
		h79.917V583.184z M396.358,245.685h-60.496c-3.597,0-6.521-2.927-6.521-6.548v-60.496L396.358,245.685z M485.128,530.675h-41.896
		V259.376c0-1.761-0.422-3.571-1.116-5.208c-0.67-1.687-1.662-3.2-2.948-4.49L325.367,135.855c-1.266-1.265-2.775-2.282-4.465-2.977
		c-1.687-0.695-3.447-1.042-5.23-1.042H173.797v-25.051c0-3.597,2.951-6.523,6.548-6.523h124.587h96.758h83.464
		c3.621,0,6.522,2.927,6.522,6.523v93.607v323.733C491.627,527.748,488.725,530.675,485.128,530.675z"/>
	<path display="inline" d="M242.452,329.991c-0.272-0.57-0.744-0.918-1.066-1.464c-0.521-0.793-1.042-1.586-1.736-2.281
		c-0.67-0.67-1.463-1.166-2.229-1.688c-0.521-0.349-0.917-0.817-1.516-1.093c-0.195-0.071-0.422-0.049-0.617-0.146
		c-0.918-0.397-1.835-0.521-2.806-0.695c-0.815-0.148-1.562-0.372-2.381-0.372c-0.844,0-1.662,0.224-2.53,0.397
		c-0.918,0.146-1.811,0.297-2.679,0.67c-0.223,0.074-0.471,0.021-0.67,0.146c-0.595,0.273-0.992,0.771-1.537,1.116
		c-0.794,0.521-1.562,0.992-2.208,1.662c-0.691,0.691-1.215,1.486-1.733,2.307c-0.322,0.521-0.818,0.895-1.066,1.438L167.92,435.405
		c-3.227,6.818-0.297,15.006,6.549,18.256c1.885,0.893,3.894,1.312,5.854,1.312c5.135,0,10.068-2.927,12.399-7.86l16.222-34.377
		h42.24l16.224,34.377c2.33,4.937,7.24,7.86,12.427,7.86c1.96,0,3.94-0.422,5.829-1.312c6.846-3.25,9.771-11.438,6.548-18.256
		L242.452,329.991z M221.891,385.303l8.16-17.312l8.16,17.312H221.891z"/>
	<path display="inline" d="M328.098,362.434c0-7.59-6.15-13.716-13.716-13.716c-7.566,0-13.716,6.151-13.716,13.716v14.113h-14.113
		c-7.59,0-13.716,6.102-13.716,13.691c0,7.612,6.147,13.738,13.716,13.738h14.113v14.091c0,7.59,6.147,13.738,13.716,13.738
		c7.59,0,13.716-6.148,13.716-13.738v-14.091h14.113c7.562,0,13.688-6.126,13.688-13.738c0-7.59-6.126-13.691-13.688-13.691h-14.113
		V362.434L328.098,362.434z"/>
	
		<text transform="matrix(1 0 0 1 2.441406e-04 1016.2266)" display="inline" font-family="'HelveticaNeue-Bold'" font-size="124.0167">Created by jhon</text>
	
		<text transform="matrix(1 0 0 1 2.441406e-04 1140.2422)" display="inline" font-family="'HelveticaNeue-Bold'" font-size="124.0167">from the Noun Project</text>
</g>
<g id="Layer_2">
	<text transform="matrix(1 0 0 1 237.9661 394.4453)" font-family="'HelveticaNeue-Light'" font-size="190">F</text>
</g>
<g id="Layer_4">
	<text transform="matrix(1 0 0 1 145.4661 369.4453)" font-family="'HelveticaNeue-UltraLight'" font-size="310">/</text>
	
		<text transform="matrix(1 0 0 1 145.4661 369.4453)" fill="none" stroke="#FFFFFF" stroke-miterlimit="10" font-family="'HelveticaNeue-UltraLight'" font-size="310">/</text>
</g>
<g id="Layer_3">
	<text transform="matrix(1 0 0 1 29.4661 237.4453)" font-family="'HelveticaNeue-Light'" font-size="190" letter-spacing="-21">A</text>
	<text transform="matrix(1 0 0 1 132.7917 159.1904)" font-family="'.SFNSText-Regular'" font-size="137.005">+</text>
</g>
</svg>
