<?xml version="1.0" encoding="utf-8"?>
<!-- Generator: Adobe Illustrator 16.0.0, SVG Export Plug-In . SVG Version: 6.00 Build 0)  -->
<!DOCTYPE svg PUBLIC "-//W3C//DTD SVG 1.1//EN" "http://www.w3.org/Graphics/SVG/1.1/DTD/svg11.dtd">
<svg version="1.1" id="Layer_1" xmlns="http://www.w3.org/2000/svg" xmlns:xlink="http://www.w3.org/1999/xlink" x="0px" y="0px"
	 width="595.279px" height="730.445px" viewBox="0 0 595.279 730.445" enable-background="new 0 0 595.279 730.445"
	 xml:space="preserve">
<path d="M593.781,319.994L489.115,158.825c-1.344-2.072-3.451-3.52-5.868-4.033c-2.416-0.518-4.923-0.05-7.003,1.295l-58.694,38.122
	c-4.307,2.802-5.531,8.561-2.733,12.866l6.408,9.868c-26.573,14.58-52.283,14.39-69.354,11.478
	c-35.106-5.973-57.997,2.357-80.155,10.409l-6.663,2.403c-0.001,0-0.001,0.001-0.001,0.001l-4.092,1.447
	c-15.458-0.83-41.497-4.123-50.919-10c-9.935-6.2-23.909-15.464-32.448-21.173l2.878-4.432c2.799-4.305,1.57-10.068-2.737-12.866
	l-58.7-38.122c-2.067-1.344-4.578-1.812-6.999-1.295c-2.411,0.514-4.522,1.961-5.868,4.033L1.498,319.994
	c-1.339,2.066-1.807,4.587-1.295,6.998c0.513,2.411,1.962,4.523,4.033,5.868l58.7,38.117c1.562,1.018,3.318,1.499,5.056,1.499
	c3.042,0,6.026-1.49,7.812-4.233l4.773-7.352l28.454,18.652l-2.149,1.562c-14.069,10.6-16.891,30.667-6.291,44.735
	c6.235,8.274,15.751,12.662,25.456,12.662c6.79,0,13.676-2.152,19.593-6.612l0.259-0.212c1.021,3.908,2.772,7.691,5.351,11.111
	c6.272,8.329,15.86,12.717,25.558,12.717c2.461,0,4.914-0.385,7.337-0.958c0.614,5.487,2.53,10.896,6.087,15.617
	c5.124,6.804,12.607,11.2,21.073,12.39c1.521,0.219,3.033,0.318,4.542,0.318c3.406,0,6.757-0.549,9.948-1.604
	c0.782,5.164,2.686,10.106,5.905,14.383c6.272,8.33,15.86,12.717,25.557,12.717c6.102,0,12.208-1.838,17.599-5.419l46.221,30.38
	c5.388,3.497,11.437,5.159,17.421,5.159c10.521,0,20.829-5.149,26.979-14.597c3.573-5.504,5.222-11.707,5.146-17.823
	c0.603,0.033,1.196,0.13,1.803,0.13c2.253,0,4.522-0.236,6.774-0.717c8.402-1.79,15.598-6.724,20.247-13.89
	c3.575-5.504,5.222-11.707,5.147-17.824c0.62,0.035,1.236,0.131,1.854,0.131c10.521,0,20.829-5.149,26.979-14.597
	c3.483-5.377,5.249-11.539,5.163-17.824c0.613,0.035,1.228,0.13,1.841,0.13c10.51,0,20.828-5.149,26.968-14.598
	c4.651-7.176,6.24-15.75,4.451-24.151c-1.085-5.091-3.439-9.645-6.625-13.552l28.315-18.321c4.314-2.789,5.551-8.547,2.763-12.862
	c-2.789-4.314-8.547-5.541-12.862-2.761l-33.752,21.839l-60.532-39.497c-4.296-2.811-10.056-1.594-12.88,2.707
	c-2.808,4.301-1.59,10.064,2.707,12.871l68.842,44.926c6.24,4.051,8.021,12.426,3.971,18.666c-4.042,6.229-12.427,8.021-18.666,3.96
	l-9.092-5.903c-0.017-0.011-0.028-0.025-0.047-0.037l-25.805-16.75c-4.323-2.807-10.073-1.571-12.871,2.733
	c-2.798,4.315-1.571,10.073,2.733,12.871l25.826,16.771c2.992,1.953,5.059,4.968,5.811,8.5c0.754,3.542,0.091,7.148-1.862,10.146
	c-4.043,6.24-12.426,8.029-18.666,3.97l-9.049-5.879c-0.033-0.021-0.056-0.05-0.089-0.07l-25.806-16.75
	c-1.076-0.703-2.247-1.15-3.44-1.361c-3.572-0.636-7.332,0.868-9.43,4.097c-0.701,1.077-1.148,2.247-1.359,3.438
	c-0.634,3.569,0.863,7.335,4.093,9.434l25.865,16.798c6.188,4.067,7.938,12.399,3.9,18.627c-1.944,2.997-4.97,5.067-8.512,5.822
	c-3.532,0.727-7.147,0.091-10.146-1.862l-9.093-5.903c-0.018-0.013-0.029-0.025-0.045-0.036l-25.807-16.75
	c-4.332-2.798-10.073-1.571-12.871,2.732c-2.798,4.315-1.569,10.073,2.733,12.871l25.852,16.786c6.2,4.062,7.955,12.406,3.915,18.63
	c-4.051,6.222-12.39,8.039-18.621,3.996l-41.139-27.04c3.99-4.604,6.614-10.252,7.483-16.45c1.19-8.466-0.972-16.868-6.09-23.662
	c-5.119-6.803-12.604-11.198-21.072-12.389c-1.262-0.172-2.51-0.124-3.763-0.15c0.361-7.217-1.557-14.581-6.233-20.785
	c-5.873-7.801-14.668-11.995-23.727-12.513c0.59-7.503-1.318-15.23-6.193-21.695c-10.604-14.088-30.68-16.886-44.74-6.295
	l-21.886,16.494l-73.182-47.975l76.745-118.18c8.623,5.764,22.553,14.995,32.735,21.347c6.178,3.854,14.2,6.3,22.136,7.878
	l-0.748,0.264c-16.768,5.881-25.634,24.312-19.761,41.083c2.839,8.103,8.684,14.625,16.463,18.366
	c7.771,3.742,16.519,4.243,24.646,1.39l43.15-15.26c13.807-2.634,48.704,21.042,61.895,30.017c1.607,1.085,3.425,1.608,5.223,1.608
	c2.979,0,5.904-1.426,7.702-4.074c2.888-4.246,1.78-10.033-2.461-12.921c-34.243-23.28-59.041-36.87-77.03-32.65
	c-0.327,0.077-0.653,0.173-0.972,0.287l-43.688,15.446c-3.41,1.199-7.104,0.986-10.405-0.604c-3.297-1.585-5.771-4.342-6.967-7.752
	c-2.483-7.094,1.269-14.892,8.385-17.385l43.509-15.382c0.002,0,0.004-0.001,0.005-0.002c0.003-0.001,0.006-0.001,0.009-0.002
	l6.785-2.453c21.709-7.893,40.466-14.71,70.676-9.552c20.261,3.462,50.964,3.708,82.651-14.155l88.087,135.639
	c1.78,2.743,4.769,4.233,7.811,4.233c1.735,0,3.488-0.482,5.061-1.499l58.695-38.117c2.062-1.344,3.515-3.457,4.032-5.868
	C595.59,324.577,595.126,322.061,593.781,319.994z M115.448,414.65c-4.429-5.877-3.247-14.262,2.498-18.594l7.719-5.609
	l22.874,14.994l-14.396,11.834C128.261,421.708,119.886,420.519,115.448,414.65z M276.645,461.793
	c2.13,2.824,3.028,6.339,2.528,9.882c-0.493,3.552-2.329,6.677-5.153,8.802h-0.005l-8.767,6.612
	c-5.872,4.435-14.261,3.242-18.692-2.625c-2.131-2.834-3.029-6.339-2.53-9.882c0.5-3.552,2.33-6.677,5.159-8.802l8.771-6.612
	c2.32-1.744,5.098-2.671,7.979-2.671c0.632,0,1.267,0.046,1.907,0.136C271.389,457.133,274.515,458.968,276.645,461.793z
	 M245.579,428.466c4.424,5.877,3.247,14.261-2.63,18.694l-19.17,14.44c-2.824,2.136-6.362,3.025-9.883,2.535
	c-3.546-0.5-6.676-2.335-8.807-5.16c-4.429-5.876-3.247-14.26,2.63-18.684l19.164-14.452c2.403-1.807,5.22-2.68,8.018-2.68
	C238.953,423.161,242.959,424.996,245.579,428.466z M196.966,391.633c2.402-1.808,5.219-2.68,8.017-2.68
	c4.051,0,8.057,1.835,10.677,5.305c2.131,2.825,3.03,6.34,2.53,9.883c-0.499,3.552-2.33,6.678-5.154,8.803h-0.005l-28.231,21.281
	c-5.871,4.434-14.27,3.252-18.688-2.625c-4.416-5.859-3.249-14.206,2.581-18.647l0.219-0.179L196.966,391.633z M65.268,350.313
	l-43.102-27.989l94.53-145.568l43.1,27.99L65.268,350.313z M530.017,350.305l-94.539-145.559l43.101-27.99l94.529,145.568
	L530.017,350.305z"/>
</svg>
