<?xml version="1.0" encoding="utf-8"?>
<!-- Generator: Adobe Illustrator 19.1.0, SVG Export Plug-In . SVG Version: 6.00 Build 0)  -->
<svg version="1.1" id="Layer_1" xmlns="http://www.w3.org/2000/svg" xmlns:xlink="http://www.w3.org/1999/xlink" x="0px" y="0px"
	 viewBox="-213.4 161.4 128 128" style="enable-background:new -213.4 161.4 128 128;" xml:space="preserve">
<style type="text/css">
	.st0{fill:#A51E23;}
	.st1{fill:#E7343C;}
	.st2{fill:#1C75BC;}
	.st3{fill:#00AEEF;}
</style>
<g>
	<polygon class="st0" points="-147,277 -133.6,252.9 -119.5,228.8 -117.5,225.4 -108.1,241.5 -119.5,260.9 -130.9,280.4 
		-149.7,280.4 	"/>
	<polygon class="st1" points="-115.5,228.8 -101.4,252.9 -87.4,277 -85.4,280.4 -104.1,281 -115.5,260.9 -126.9,241.5 -117.5,225.4 
			"/>
	<polygon class="st2" points="-211.3,277 -197.3,252.9 -183.2,228.8 -181.2,225.4 -171.8,241.5 -183.2,260.9 -194.6,280.4 
		-213.4,280.4 	"/>
	<polygon class="st1" points="-179.2,228.8 -165.1,252.9 -151.7,277 -149.7,280.4 -167.8,281 -179.2,260.9 -190.6,241.5 
		-181.2,225.4 	"/>
	<polygon class="st2" points="-179.2,222 -165.1,197.9 -151.7,173.8 -149.7,169.8 -140.3,185.9 -151,206 -162.4,225.4 -181.2,225.4 
			"/>
	<polygon class="st3" points="-133.6,197.3 -119.5,221.4 -117.5,225.4 -136.3,225.4 -147.7,206 -158.4,185.9 -149.7,169.8 	"/>
</g>
</svg>
