<?xml version="1.0" encoding="utf-8"?>
<!-- Generator: Adobe Illustrator 19.1.0, SVG Export Plug-In . SVG Version: 6.00 Build 0)  -->
<svg version="1.1" id="Layer_1" xmlns="http://www.w3.org/2000/svg" xmlns:xlink="http://www.w3.org/1999/xlink" x="0px" y="0px"
	 viewBox="0 0 206.4 33.1" style="enable-background:new 0 0 206.4 33.1;" xml:space="preserve">
<g>
	<polygon style="fill-rule:evenodd;clip-rule:evenodd;fill:#A51E23;" points="19.7,32 23.9,24.8 28,17.6 28.6,16.5 31.4,21.4 
		28.1,27.2 24.7,33.1 19.1,33.1 	"/>
	<polygon style="fill-rule:evenodd;clip-rule:evenodd;fill:#E7343C;" points="29.3,17.6 33.4,24.8 37.6,32 38.2,33.1 32.6,33.1 
		29.2,27.2 25.9,21.4 28.6,16.5 	"/>
	<polygon style="fill-rule:evenodd;clip-rule:evenodd;fill:#1C75BC;" points="0.6,32 4.8,24.8 8.9,17.6 9.5,16.5 12.3,21.4 9,27.2 
		5.6,33.1 0,33.1 	"/>
	<polygon style="fill-rule:evenodd;clip-rule:evenodd;fill:#E7343C;" points="10.2,17.6 14.3,24.8 18.5,32 19.1,33.1 13.5,33.1 
		10.1,27.2 6.8,21.4 9.5,16.5 	"/>
	<polygon style="fill-rule:evenodd;clip-rule:evenodd;fill:#1C75BC;" points="10.2,15.5 14.3,8.3 18.5,1.1 19.1,0 21.9,4.8 
		18.5,10.7 15.1,16.5 9.6,16.5 	"/>
	<polygon style="fill-rule:evenodd;clip-rule:evenodd;fill:#00AEEF;" points="19.7,1.1 23.9,8.3 28,15.5 28.6,16.5 23.1,16.5 
		19.7,10.7 16.3,4.8 19.1,0 	"/>
</g>
<g>
	<path style="fill:#929799;" d="M47.8,18.2V8.5h2v9.6c0,4,2.9,5,4.7,5c1.8,0,4.7-1,4.7-5V8.5h2v9.7c0,4.1-2.6,6.7-6.7,6.7
		C50.5,24.9,47.8,22.3,47.8,18.2z"/>
	<path style="fill:#929799;" d="M79.8,24.6h-0.4L68.2,13v11.6h-2V8.5h0.4L77.7,20V8.5h2V24.6z"/>
	<path style="fill:#929799;" d="M87.3,24.6h-2.1V8.5h2.1V24.6z"/>
	<path style="fill:#929799;" d="M102.9,10.2H98v14.4h-2V10.2h-4.9V8.5h11.8V10.2z"/>
	<path style="fill:#929799;" d="M108.3,10.2v5.5h8.2v1.8h-8.2v5.3h9.3v1.8h-11.4V8.5h11.4v1.7H108.3z"/>
	<path style="fill:#929799;" d="M122.3,24.6V8.5h6.1c2.3,0,4.2,0.7,5.6,2c1.5,1.4,2.4,3.5,2.4,6c0,2.6-0.8,4.6-2.4,6.1
		c-1.4,1.3-3.3,2-5.6,2H122.3z M124.4,22.9h3.8c2.4,0,6.1-1,6.1-6.3c0-5.3-3.8-6.3-6.1-6.3h-3.8V22.9z"/>
	<path style="fill:#929799;" d="M140.7,22.2c0.7,0,1.3,0.6,1.3,1.3c0,0.7-0.6,1.3-1.3,1.3c-0.7,0-1.3-0.6-1.3-1.3
		C139.4,22.8,140,22.2,140.7,22.2z"/>
	<path style="fill:#929799;" d="M159.8,8.5l-7.3,16.1H152l-7.2-16.1h2.3l5.2,11.8l5.2-11.8H159.8z"/>
	<path style="fill:#929799;" d="M161.6,16.5c0-4.6,3.5-8.4,8.2-8.4c4.8,0,8.3,3.8,8.3,8.4c0,4.6-3.5,8.4-8.3,8.4
		C165.1,24.9,161.6,21.2,161.6,16.5z M163.6,16.5c0,3.5,2.8,6.5,6.2,6.5c3.4,0,6.2-3.1,6.2-6.5c0-3.5-2.8-6.5-6.2-6.5
		C166.4,10,163.6,13.1,163.6,16.5z"/>
	<path style="fill:#929799;" d="M191.8,10.2h-4.9v14.4h-2V10.2h-4.9V8.5h11.8V10.2z"/>
	<path style="fill:#929799;" d="M197.2,10.2v5.5h8.2v1.8h-8.2v5.3h9.3v1.8h-11.4V8.5h11.4v1.7H197.2z"/>
</g>
<g>
</g>
<g>
</g>
<g>
</g>
<g>
</g>
<g>
</g>
<g>
</g>
</svg>
