<?xml version="1.0" encoding="utf-8"?>
<!-- Generator: Adobe Illustrator 16.0.0, SVG Export Plug-In . SVG Version: 6.00 Build 0)  -->
<!DOCTYPE svg PUBLIC "-//W3C//DTD SVG 1.1//EN" "http://www.w3.org/Graphics/SVG/1.1/DTD/svg11.dtd">
<svg version="1.1" id="Layer_1" xmlns="http://www.w3.org/2000/svg" xmlns:xlink="http://www.w3.org/1999/xlink" x="0px" y="0px"
	 width="595.279px" height="841.891px" viewBox="0 0 595.279 841.891" enable-background="new 0 0 595.279 841.891"
	 xml:space="preserve">
<g>
	<path d="M382.654,331.485c16.277,0,32.517-2.25,48.385-6.697l81.702,49.688l-10.604-90.278
		c26.342-25.969,40.777-59.175,40.777-94.017c0-77.908-71.899-141.286-160.261-141.286c-88.362,0-160.242,63.397-160.242,141.305
		C222.411,268.107,294.291,331.485,382.654,331.485z M382.654,67.498c78.093,0,141.64,55.044,141.64,122.702
		c0,31.103-13.58,60.83-38.284,83.674l-3.479,3.2l7.255,61.686l-56.18-34.154l-4,1.209c-15.347,4.688-31.159,7.069-46.971,7.069
		c-78.094,0-141.64-55.045-141.64-122.703C241.014,122.523,304.56,67.498,382.654,67.498z"/>
	<rect x="290.311" y="163.672" width="184.686" height="18.603"/>
	<rect x="338.882" y="217.508" width="87.562" height="18.603"/>
	<path d="M82.558,644.175l81.702-49.687c15.887,4.445,32.127,6.696,48.385,6.696c88.362,0,160.242-63.379,160.242-141.305
		s-71.88-141.323-160.242-141.323c-88.361,0-160.241,63.397-160.241,141.323c0,34.843,14.436,68.048,40.776,94.018L82.558,644.175z
		 M70.969,459.898c0-67.676,63.546-122.721,141.639-122.721c78.094,0,141.64,55.045,141.64,122.721
		c0,67.657-63.546,122.702-141.64,122.702c-15.793,0-31.605-2.381-46.971-7.087l-4-1.21l-56.161,34.154l7.255-61.686l-3.479-3.218
		C84.567,520.691,70.969,491.002,70.969,459.898z"/>
	<rect x="120.283" y="433.371" width="184.687" height="18.603"/>
	<rect x="168.836" y="487.207" width="87.562" height="18.603"/>
</g>
</svg>
